<svg width="613" height="676" viewBox="0 0 613 676" fill="none" xmlns="http://www.w3.org/2000/svg">
<path d="M369.756 231.144L427.472 367.376L441.57 555.363L306.369 569.447C306.369 569.447 309.998 459.058 306.369 436.46L277.257 501.025L139.442 538.473L111.664 404.187L167.847 404.824L258.514 236.499C258.514 236.499 288.379 224.033 319.787 224.033C347.175 224.033 369.756 231.144 369.756 231.144Z" fill="black" stroke="black" stroke-width="3" stroke-miterlimit="10" stroke-linecap="round" stroke-linejoin="round"/>
<path d="M305.217 439.576L338.575 355.754" stroke="white" stroke-width="3" stroke-miterlimit="10" stroke-linecap="round" stroke-linejoin="round"/>
<path d="M300.018 570.107L452.883 554.181L446.986 598.085L300.018 606.263V570.107Z" fill="white" stroke="black" stroke-width="3" stroke-miterlimit="10" stroke-linecap="round" stroke-linejoin="round"/>
<path d="M406.806 600.324L408.43 618.101L474.883 642.205L310.451 655.549L307.276 606.264L406.806 600.324Z" fill="white" stroke="black" stroke-width="3" stroke-miterlimit="10"/>
<path d="M71.057 398.047L110.865 400.302L142.5 554.182L77.1806 527.822L71.057 398.047Z" fill="white" stroke="black" stroke-width="3" stroke-miterlimit="10" stroke-linecap="round" stroke-linejoin="round"/>
<path d="M71.2564 402.267C71.2564 402.267 16.0617 392.341 2 401.38C4.26802 437.536 10.6185 574.844 10.6185 574.844L35.3399 523.623L76.1099 505.106L71.2564 402.267Z" fill="white" stroke="black" stroke-width="3" stroke-miterlimit="10"/>
<path d="M495.858 124.076L475.391 84.2607C464.849 91.5265 414.154 125.419 386.258 126.391C365.519 127.115 317.364 92.8694 317.364 92.8694C317.364 92.8694 314.506 96.8896 309.653 96.8466C306.469 96.8208 302.622 93.9455 302.622 93.9455C302.622 93.9455 201.695 134.458 167.847 181.59C177.826 216.025 241.93 285.135 247.373 290.464C252.989 287.554 275.351 254.549 275.351 254.549C275.351 254.549 233.166 203.379 231.47 196.44C229.773 189.502 257.153 167.55 257.153 167.55L260.192 235.842C260.192 235.842 287.943 224.53 315.332 224.048C342.884 223.566 369.765 231.15 369.765 231.15C369.765 231.15 365.836 173.145 370.989 173.558C404.102 176.175 495.858 124.076 495.858 124.076Z" fill="white" stroke="black" stroke-width="3" stroke-miterlimit="10" stroke-linecap="round" stroke-linejoin="round"/>
<path d="M499.468 80.1803C499.468 80.1803 525.106 51.9783 531.584 57.6945C539.25 64.4609 517.667 83.1244 517.667 83.1244C517.667 83.1244 541.672 69.2473 544.738 73.388C550.526 81.1875 523.192 95.9857 523.192 95.9857C523.192 95.9857 547.605 89.0988 550.408 94.6686C553.647 101.091 521.378 111.697 521.378 111.697C521.378 111.697 532.21 112.463 532.718 115.037C534.16 122.354 495.867 124.076 495.867 124.076L475.4 84.2608C475.4 84.2608 489.516 60.7763 495.304 61.0948C501.092 61.4134 496.384 68.2228 497.264 71.9934C497.6 73.4225 500.321 81.7729 499.986 83.6151C499.478 86.4387 496.665 92.1721 496.665 92.1721" fill="white"/>
<path d="M499.468 80.1803C499.468 80.1803 525.106 51.9783 531.584 57.6945C539.25 64.4609 517.667 83.1244 517.667 83.1244C517.667 83.1244 541.672 69.2473 544.738 73.388C550.526 81.1875 523.192 95.9857 523.192 95.9857C523.192 95.9857 547.605 89.0988 550.408 94.6686C553.647 101.091 521.378 111.697 521.378 111.697C521.378 111.697 532.21 112.463 532.718 115.037C534.16 122.354 495.867 124.076 495.867 124.076L475.4 84.2608C475.4 84.2608 489.516 60.7763 495.304 61.0948C501.092 61.4134 496.384 68.2228 497.264 71.9934C497.6 73.4225 500.321 81.7729 499.986 83.6151C499.478 86.4387 496.665 92.1721 496.665 92.1721" stroke="black" stroke-width="3" stroke-miterlimit="10" stroke-linecap="round" stroke-linejoin="round"/>
<path d="M268.801 265.448C268.801 265.448 272.575 271.827 273.029 275.486C273.483 279.145 253.07 316.162 253.07 316.162L247.373 290.474L268.801 265.448Z" fill="white" stroke="black" stroke-width="3" stroke-miterlimit="10"/>
<path d="M287.172 56.8529C287.172 56.8529 286.583 41.9686 290.493 37.0444C295.428 30.829 301.27 29.7099 303.992 25.9996C306.714 22.2892 309.798 17.6491 316.348 19.0437C328.94 21.7296 331.571 55.3895 331.571 55.3895C331.571 55.3895 329.974 57.0079 311.077 57.9463C291.599 58.919 287.172 56.8529 287.172 56.8529Z" fill="white" stroke="black" stroke-width="3" stroke-miterlimit="10" stroke-linecap="round" stroke-linejoin="round"/>
<path d="M313.155 18.7918C316.798 18.7918 319.75 17.173 319.75 15.1762C319.75 13.1793 316.798 11.5605 313.155 11.5605C309.512 11.5605 306.56 13.1793 306.56 15.1762C306.56 17.173 309.512 18.7918 313.155 18.7918Z" fill="white" stroke="black" stroke-width="3" stroke-miterlimit="10" stroke-linecap="round" stroke-linejoin="round"/>
<path d="M312.093 82.6421C319.714 82.8745 337.622 88.1344 343.637 80.929C349.643 73.7149 339.446 64.6844 335.817 59.6225C332.188 54.5606 335.926 38.2128 307.585 41.9748C279.234 45.7368 280.486 68.3087 280.395 71.2959C280.314 74.2831 274.354 77.9848 276.912 82.3494C280.287 88.1344 303.03 82.3666 312.093 82.6421Z" fill="black"/>
<path d="M303.539 94.6087C303.539 94.6087 304.137 96.296 309.118 96.8556C311.304 97.0966 315.414 94.3075 315.414 94.3075L314.978 82.5652C314.978 82.5652 327.053 75.9451 324.849 65.2101C324.849 65.2101 314.389 64.0394 311.622 63.2302C308.855 62.421 304.772 70.3151 301.543 69.6694C298.313 69.0238 294.176 65.9591 293.033 67.3537C291.89 68.7483 296.317 73.001 296.317 73.001C296.317 73.001 296.544 79.6727 304.137 82.2036C304.328 85.5008 303.539 94.6087 303.539 94.6087Z" fill="white" stroke="black" stroke-width="3" stroke-miterlimit="10"/>
<path d="M406.788 224.015L391.139 311.1L495.576 293.667L476.035 215.862L406.788 224.015Z" fill="#565656" stroke="black" stroke-width="3" stroke-miterlimit="10" stroke-linecap="round" stroke-linejoin="round"/>
<path d="M406.788 224.014C406.788 224.014 373.775 154.465 410.181 120.529" stroke="black" stroke-width="3" stroke-miterlimit="10" stroke-linecap="round" stroke-linejoin="round"/>
<path d="M445.771 150.152C445.771 150.152 453.446 155.068 456.222 160.216" stroke="black" stroke-width="3" stroke-miterlimit="10" stroke-linecap="round" stroke-linejoin="round"/>
<path d="M505.048 136.077L459.687 187.359L515.018 228.207L565.831 179.706L505.048 136.077Z" fill="black" stroke="black" stroke-width="3" stroke-miterlimit="10"/>
<path d="M445.771 166.647C445.771 166.647 441.316 155.266 441.316 151.892" stroke="black" stroke-width="3" stroke-miterlimit="10" stroke-linecap="round" stroke-linejoin="round"/>
<path d="M432.698 108.452C444.719 83.2893 467.399 107.015 505.048 136.069" stroke="black" stroke-width="3" stroke-miterlimit="10" stroke-linecap="round" stroke-linejoin="round"/>
<path d="M416.023 184.983L443.584 267.944L542.244 213.064L475.754 148.181L416.023 184.983Z" fill="#DADADA" stroke="black" stroke-width="3" stroke-miterlimit="10" stroke-linecap="round" stroke-linejoin="round"/>
<path d="M431.673 108.469C398.678 107.049 416.024 184.975 416.024 184.975" stroke="black" stroke-width="3" stroke-miterlimit="10" stroke-linecap="round" stroke-linejoin="round"/>
<path d="M465.992 140.363C465.992 140.363 472.787 145.184 475.745 148.18" stroke="black" stroke-width="3" stroke-miterlimit="10" stroke-linecap="round" stroke-linejoin="round"/>
<path d="M83.4404 257.028L172.102 220.924L210.54 273.437L133.654 338.32L83.4404 257.028Z" fill="#A7A5A5"/>
<path d="M172.102 220.924L182.689 210.809" stroke="black" stroke-width="3" stroke-miterlimit="10" stroke-linecap="round" stroke-linejoin="round"/>
<path d="M233.62 200.573C260.201 211.446 210.55 273.428 210.55 273.428" stroke="black" stroke-width="3" stroke-miterlimit="10" stroke-linecap="round" stroke-linejoin="round"/>
<path d="M160.989 193.478L170.469 188.752" stroke="black" stroke-width="3" stroke-miterlimit="10" stroke-linecap="round" stroke-linejoin="round"/>
<path d="M233.792 193.48C233.792 193.48 238.192 212.712 217.009 227.7C191.153 245.993 160.989 248.361 160.989 248.361" stroke="black" stroke-width="3" stroke-miterlimit="10" stroke-linecap="round" stroke-linejoin="round"/>
<path d="M160.989 193.479L84.1119 179.49L80.1201 257.614L160.989 248.36V193.479Z" fill="#DADADA" stroke="black" stroke-width="3" stroke-miterlimit="10" stroke-linecap="round" stroke-linejoin="round"/>
<path d="M106.783 655.548H245.132" stroke="black" stroke-width="3" stroke-miterlimit="10" stroke-linecap="round" stroke-linejoin="round"/>
<path d="M113.415 53.2704C128.917 53.2704 141.484 41.3454 141.484 26.6352C141.484 11.925 128.917 0 113.415 0C97.9126 0 85.3457 11.925 85.3457 26.6352C85.3457 41.3454 97.9126 53.2704 113.415 53.2704Z" fill="#A7A5A5"/>
<path d="M158.648 61.1827L136.657 72.3911L114.667 83.5996L115.429 59.9258L116.2 36.252L137.419 48.7173L158.648 61.1827Z" fill="white" stroke="black" stroke-width="3" stroke-miterlimit="10"/>
<path d="M542.171 432.379L562.646 423.744C562.646 423.744 556.731 446.626 565.831 453.1C574.349 459.16 599.27 450.724 607.236 460.004C614.067 467.967 609.513 504.907 609.513 504.907L594.952 512.25C594.952 512.25 599.715 481.818 591.314 475.121C579.938 466.056 561.304 477.032 553.556 472.099C542.171 464.868 542.171 432.379 542.171 432.379Z" stroke="black" stroke-width="3" stroke-miterlimit="10" stroke-linecap="round" stroke-linejoin="round"/>
</svg>
