<svg width="44" height="44" viewBox="0 0 44 44" fill="none" xmlns="http://www.w3.org/2000/svg">
<path d="M22.5647 27.3778C25.2232 27.3778 27.3783 25.2227 27.3783 22.5642C27.3783 19.9056 25.2232 17.7505 22.5647 17.7505C19.9061 17.7505 17.751 19.9056 17.751 22.5642C17.751 25.2227 19.9061 27.3778 22.5647 27.3778Z" fill="#4A2343"/>
<path d="M18.0504 7.521L15.2976 10.5295H10.5291C8.87435 10.5295 7.52051 11.8834 7.52051 13.5381V31.5894C7.52051 33.2441 8.87435 34.5979 10.5291 34.5979H34.5974C36.2521 34.5979 37.606 33.2441 37.606 31.5894V13.5381C37.606 11.8834 36.2521 10.5295 34.5974 10.5295H29.8289L27.0761 7.521H18.0504ZM22.5632 30.0851C18.4114 30.0851 15.0419 26.7155 15.0419 22.5637C15.0419 18.4119 18.4114 15.0424 22.5632 15.0424C26.715 15.0424 30.0846 18.4119 30.0846 22.5637C30.0846 26.7155 26.715 30.0851 22.5632 30.0851Z" fill="#4A2343"/>
<circle cx="22" cy="22" r="21.5" stroke="#4A2343"/>
</svg>
