<svg width="47" height="39" viewBox="0 0 47 39" fill="none" xmlns="http://www.w3.org/2000/svg">
<path d="M37.15 38.5C33.25 38.5 30.3 36.9 28.3 33.7C26.6 31 25.75 27.7 25.75 23.8C25.75 18.8 27 14.3 29.5 10.3C32.1 6.3 36 3.1 41.2 0.699991L42.55 3.39999C39.45 4.69999 36.75 6.74999 34.45 9.54999C32.25 12.35 31.15 15.2 31.15 18.1C31.15 19.3 31.3 20.35 31.6 21.25C33.2 19.95 35.05 19.3 37.15 19.3C39.85 19.3 42.1 20.2 43.9 22C45.8 23.7 46.75 26 46.75 28.9C46.75 31.6 45.8 33.9 43.9 35.8C42.1 37.6 39.85 38.5 37.15 38.5ZM11.65 38.5C7.75 38.5 4.8 36.9 2.8 33.7C1.1 31 0.250001 27.7 0.250001 23.8C0.250001 18.8 1.5 14.3 4 10.3C6.6 6.3 10.5 3.1 15.7 0.699991L17.05 3.39999C13.95 4.69999 11.25 6.74999 8.95 9.54999C6.75 12.35 5.65 15.2 5.65 18.1C5.65 19.3 5.8 20.35 6.1 21.25C7.7 19.95 9.55 19.3 11.65 19.3C14.35 19.3 16.6 20.2 18.4 22C20.3 23.7 21.25 26 21.25 28.9C21.25 31.6 20.3 33.9 18.4 35.8C16.6 37.6 14.35 38.5 11.65 38.5Z" fill="#4A2343"/>
</svg>
